<svg width="240" height="39" viewBox="0 0 240 39" fill="none" xmlns="http://www.w3.org/2000/svg">
<path d="M27.967 0.878913C20.242 0.874913 12.182 2.61491 4.04696 4.87191C3.01396 5.07991 2.00596 5.75591 1.47296 6.59191C0.982961 7.37991 0.804961 8.17091 0.651961 8.99991C-0.138039 13.4279 -0.0420386 17.7759 0.121961 22.5939C0.157961 23.6969 0.321961 25.0039 0.836961 25.7989C1.37496 26.6019 2.29696 27.1119 3.39796 27.2789C4.80457 27.4852 6.21558 27.6603 7.62996 27.8039L7.31796 36.5019C7.26996 37.1939 7.60796 37.7689 8.02796 38.0999C8.40396 38.3859 8.82296 38.5129 9.25296 38.5449C10.113 38.6099 11.122 38.2419 11.623 37.2879C13.818 33.0639 15.195 31.1989 17.94 28.3929C25.098 28.5689 31.347 28.1709 38.422 27.6479C40.923 27.5829 42.64 25.5379 43.094 23.9049C44.451 19.6729 44.662 14.4489 44.806 9.16791C44.867 7.07491 44.141 5.01991 42.856 3.93391C41.634 2.94291 40.154 2.58391 38.798 2.21591C35.031 1.36291 31.263 0.904913 27.967 0.878913ZM38.257 4.18891C39.615 4.55791 40.812 4.91291 41.567 5.52591C42.827 6.86491 42.785 7.75591 42.767 9.20091C42.625 14.3229 42.379 19.2939 41.223 23.0609C40.725 24.4659 39.857 25.4659 38.217 25.6169C31.009 26.1499 24.755 26.5619 17.51 26.3559C17.3689 26.3514 17.2284 26.3759 17.0972 26.4278C16.9659 26.4798 16.8467 26.5581 16.747 26.6579C13.703 29.7319 12.146 31.8679 9.82596 36.3339C9.77196 36.4359 9.65496 36.4979 9.51096 36.5089C9.41396 36.5039 9.37496 36.4289 9.36896 36.3609L9.68296 26.9289C9.70196 26.4199 9.28196 25.9339 8.77596 25.8789C7.08408 25.7173 5.39681 25.5106 3.71596 25.2589C2.98996 25.1479 2.72196 24.9489 2.52296 24.6529C2.17696 23.8279 2.18496 23.3179 2.15796 22.5249C1.99596 17.7499 1.91596 13.5769 2.64896 9.42491C2.71696 8.81091 2.94696 8.18291 3.19096 7.65791C3.59496 7.02591 4.21396 6.93291 4.83496 6.76091C12.791 4.56391 20.575 2.92091 27.903 2.91591C31.495 3.04591 35.267 3.40591 38.257 4.18891V4.18891ZM10.778 12.2789C9.68196 13.5919 9.79096 15.3749 10.638 16.5689C11.08 17.1939 11.77 17.6969 12.61 17.8109C13.701 17.9009 14.393 17.4589 15.14 16.9509C16.493 15.7749 16.63 13.7229 15.601 12.2409C15.077 11.4859 14.239 11.0329 13.383 11.0009C12.211 11.0129 11.415 11.5359 10.778 12.2779V12.2789ZM22.634 11.2069C21.542 11.2419 20.659 11.9979 20.12 12.8139C19.503 13.7469 19.143 14.9149 19.642 16.0599C20.602 18.2629 23.919 18.2359 25.242 15.9969C25.852 14.9649 25.696 13.7919 25.242 12.9409C24.79 12.0909 24.106 11.3979 23.111 11.2389C22.9534 11.213 22.7936 11.2023 22.634 11.2069V11.2069ZM32.259 11.4139C31.919 11.4059 31.569 11.4379 31.241 11.5249C29.929 11.8749 28.812 13.2289 28.981 14.9619C29.067 15.8339 29.468 16.6839 30.191 17.2699C30.914 17.8549 31.964 18.1169 33.071 17.8899C34.343 17.6299 35.131 16.6049 35.394 15.6149C35.657 14.6249 35.591 13.6159 34.98 12.7979C34.6621 12.3752 34.2517 12.0307 33.7803 11.7908C33.3089 11.551 32.7888 11.422 32.26 11.4139H32.259ZM13.294 13.0369C13.539 13.0389 13.732 13.1169 13.931 13.4029C14.376 14.0449 14.252 15.0179 13.803 15.4079C13.356 15.7979 13.077 15.8319 12.881 15.8059C12.685 15.7789 12.486 15.6439 12.308 15.3919C11.968 14.9119 11.868 14.1359 12.315 13.5819C12.553 13.2659 12.99 13.0689 13.295 13.0369H13.294ZM22.777 13.2599C22.815 13.2659 23.241 13.5129 23.445 13.8959C23.649 14.2789 23.687 14.6349 23.493 14.9619C22.916 15.9379 21.689 15.6739 21.503 15.2489C21.433 15.0869 21.486 14.4359 21.823 13.9289C22.158 13.4199 22.58 13.2289 22.777 13.2589V13.2599ZM33.341 14.0079C33.403 14.0909 33.554 14.6479 33.437 15.0899C33.319 15.5319 33.127 15.8049 32.657 15.9009C32.055 16.0249 31.717 15.9009 31.464 15.6939C31.21 15.4889 31.039 15.1419 31.002 14.7709C30.912 13.8509 31.242 13.6379 31.766 13.4979C32.376 13.3479 33.066 13.6099 33.341 14.0079V14.0079Z" fill="white"/>
<path d="M57.61 4.99577C57.626 4.73577 57.721 4.50177 57.897 4.29477C57.9826 4.19329 58.0903 4.11264 58.2117 4.05893C58.3332 4.00522 58.4653 3.97986 58.598 3.98477H65.424C65.654 3.98477 65.891 4.08077 66.136 4.27177C66.2508 4.35419 66.3441 4.46297 66.4082 4.58895C66.4722 4.71493 66.5051 4.85445 66.504 4.99577V15.8888H77.925V4.99577C77.925 4.71977 78.021 4.48277 78.212 4.28377C78.404 4.08377 78.652 3.98377 78.959 3.98377H85.693C85.999 3.98377 86.267 4.06077 86.497 4.21377C86.727 4.36777 86.842 4.61277 86.842 4.94977V37.0998C86.842 37.4368 86.742 37.6898 86.542 37.8578C86.344 38.0268 86.083 38.1108 85.762 38.1108H78.959C78.653 38.1108 78.404 38.0268 78.212 37.8578C78.021 37.6898 77.925 37.4378 77.925 37.0998V24.0468H66.504V37.0998C66.504 37.4218 66.4 37.6698 66.194 37.8468C65.987 38.0228 65.707 38.1108 65.354 38.1108H58.598C57.955 38.1108 57.626 37.8118 57.61 37.2148V4.99577ZM120.485 37.7208C120.286 37.8888 120.075 37.9958 119.853 38.0418C119.646 38.0865 119.434 38.1099 119.222 38.1118H115.752C115.476 38.1118 115.238 38.0618 115.039 37.9618C114.839 37.8618 114.671 37.7278 114.533 37.5598C114.392 37.3853 114.276 37.1917 114.189 36.9848C114.096 36.7686 114.02 36.546 113.959 36.3188L113.247 33.3768C113.017 33.8518 112.684 34.3918 112.247 34.9968C111.774 35.6388 111.213 36.2111 110.581 36.6968C109.907 37.2268 109.102 37.6708 108.168 38.0308C107.233 38.3908 106.161 38.5708 104.95 38.5708C103.204 38.5708 101.618 38.2338 100.193 37.5598C98.7979 36.9079 97.5566 35.968 96.551 34.8018C95.548 33.6378 94.77 32.2778 94.219 30.7218C93.667 29.1678 93.391 27.5088 93.391 25.7478V10.6948C93.391 10.1128 93.518 9.67277 93.771 9.37377C94.023 9.07477 94.425 8.92577 94.977 8.92577H100.285C100.945 8.92577 101.396 9.03577 101.641 9.25877C101.886 9.48077 102.009 9.91377 102.009 10.5568V25.5168C102.009 26.1768 102.159 26.8008 102.457 27.3908C102.756 27.9808 103.15 28.5008 103.641 28.9528C104.131 29.4048 104.686 29.7618 105.307 30.0218C105.927 30.2818 106.559 30.4118 107.203 30.4118C107.754 30.4118 108.325 30.2818 108.915 30.0218C109.509 29.7584 110.059 29.4057 110.546 28.9758C111.044 28.5398 111.454 28.0258 111.776 27.4358C112.098 26.8458 112.258 26.2218 112.258 25.5638V10.6258C112.258 10.3658 112.308 10.1058 112.408 9.84477C112.508 9.58477 112.657 9.38477 112.856 9.24677C113.055 9.12477 113.243 9.04077 113.419 8.99477C113.595 8.94877 113.799 8.92477 114.028 8.92477H119.222C119.88 8.92477 120.355 9.08677 120.646 9.40777C120.937 9.72977 121.083 10.1588 121.083 10.6948V36.4108C121.083 36.7008 121.018 36.9698 120.888 37.2148C120.758 37.4598 120.578 37.6518 120.348 37.7888L120.485 37.7208V37.7208ZM147.166 34.5488C146.752 34.9628 146.296 35.4068 145.799 35.8818C145.301 36.3568 144.753 36.8018 144.156 37.2148C143.555 37.6304 142.907 37.9738 142.226 38.2378C141.514 38.5099 140.758 38.6463 139.996 38.6398C137.913 38.6398 135.994 38.2498 134.239 37.4678C132.528 36.7171 130.988 35.6263 129.712 34.2618C128.448 32.9058 127.46 31.3088 126.748 29.4698C126.035 27.6318 125.679 25.6558 125.679 23.5408C125.679 21.4108 126.035 19.4308 126.748 17.6008C127.46 15.7708 128.448 14.1768 129.712 12.8208C130.987 11.4575 132.527 10.3704 134.239 9.62677C135.994 8.85277 137.913 8.46577 139.996 8.46577C140.839 8.46577 141.609 8.58877 142.306 8.83377C142.979 9.06678 143.619 9.38325 144.213 9.77577C144.788 10.1588 145.316 10.5918 145.799 11.0738C146.281 11.5568 146.737 12.0278 147.166 12.4878V1.98477C147.166 1.49477 147.316 1.08177 147.614 0.74477C147.913 0.40677 148.361 0.23877 148.959 0.23877H154.129C154.329 0.23877 154.539 0.28077 154.761 0.36477C154.983 0.44977 155.186 0.56777 155.371 0.72177C155.554 0.87477 155.703 1.05877 155.818 1.27277C155.933 1.48777 155.991 1.72477 155.991 1.98477V36.3418C155.991 37.5218 155.371 38.1118 154.129 38.1118H149.625C149.319 38.1118 149.081 38.0718 148.913 37.9958C148.746 37.9209 148.6 37.8066 148.487 37.6628C148.359 37.4941 148.255 37.3087 148.177 37.1118C148.069 36.8523 147.954 36.5956 147.833 36.3418L147.166 34.5488V34.5488ZM133.952 23.5408C133.944 24.5072 134.104 25.4676 134.423 26.3798C134.737 27.2598 135.185 28.0228 135.768 28.6658C136.356 29.3138 137.072 29.8339 137.87 30.1938C138.69 30.5698 139.598 30.7568 140.594 30.7568C141.574 30.7568 142.497 30.5808 143.363 30.2288C144.204 29.8919 144.972 29.3962 145.626 28.7688C146.275 28.1405 146.802 27.3964 147.178 26.5748C147.568 25.7318 147.787 24.8278 147.833 23.8628V23.5408C147.836 22.5791 147.649 21.6263 147.281 20.7378C146.925 19.8667 146.406 19.0712 145.753 18.3938C145.098 17.7171 144.318 17.1746 143.455 16.7968C142.553 16.4018 141.578 16.2021 140.594 16.2108C139.598 16.2108 138.69 16.4058 137.87 16.7968C137.05 17.1868 136.35 17.7198 135.768 18.3938C135.176 19.0837 134.72 19.8789 134.423 20.7378C134.107 21.6384 133.948 22.5864 133.953 23.5408H133.952ZM182.672 34.5488C182.258 34.9628 181.802 35.4068 181.304 35.8818C180.806 36.3568 180.258 36.8018 179.661 37.2148C179.06 37.6304 178.412 37.9738 177.731 38.2378C177.019 38.5099 176.263 38.6463 175.501 38.6398C173.418 38.6398 171.499 38.2498 169.745 37.4678C168.034 36.7172 166.493 35.6264 165.217 34.2618C163.954 32.9058 162.965 31.3088 162.253 29.4698C161.541 27.6318 161.184 25.6558 161.184 23.5408C161.184 21.4108 161.541 19.4308 162.253 17.6008C162.965 15.7708 163.953 14.1768 165.217 12.8208C166.492 11.4574 168.033 10.3703 169.745 9.62677C171.499 8.85277 173.418 8.46577 175.501 8.46577C176.344 8.46577 177.114 8.58877 177.811 8.83377C178.484 9.06678 179.124 9.38325 179.718 9.77577C180.293 10.1588 180.821 10.5918 181.304 11.0738C181.787 11.5568 182.242 12.0278 182.671 12.4878V1.98477C182.671 1.49477 182.821 1.08177 183.119 0.74477C183.419 0.40677 183.866 0.23877 184.464 0.23877H189.634C189.834 0.23877 190.044 0.28077 190.266 0.36477C190.489 0.44977 190.692 0.56777 190.876 0.72177C191.059 0.87477 191.209 1.05877 191.324 1.27277C191.438 1.48777 191.496 1.72477 191.496 1.98477V36.3418C191.496 37.5218 190.876 38.1118 189.634 38.1118H185.13C184.824 38.1118 184.586 38.0718 184.418 37.9958C184.251 37.9207 184.106 37.8065 183.993 37.6628C183.865 37.4941 183.761 37.3087 183.683 37.1118C183.574 36.8523 183.459 36.5956 183.338 36.3418L182.671 34.5488H182.672ZM169.457 23.5408C169.449 24.5072 169.609 25.4676 169.928 26.3798C170.243 27.2598 170.691 28.0228 171.273 28.6658C171.862 29.3139 172.578 29.8341 173.376 30.1938C174.196 30.5698 175.103 30.7568 176.099 30.7568C177.079 30.7568 178.002 30.5808 178.868 30.2288C179.709 29.892 180.478 29.3963 181.132 28.7688C181.781 28.1403 182.306 27.3962 182.682 26.5748C183.073 25.7318 183.292 24.8278 183.338 23.8628V23.5408C183.341 22.5791 183.154 21.6263 182.786 20.7378C182.43 19.8667 181.911 19.0712 181.258 18.3938C180.603 17.7171 179.823 17.1746 178.96 16.7968C178.058 16.4018 177.083 16.2021 176.099 16.2108C175.103 16.2108 174.195 16.4058 173.376 16.7968C172.556 17.1868 171.855 17.7198 171.273 18.3938C170.681 19.0837 170.225 19.8789 169.928 20.7378C169.612 21.6384 169.453 22.5864 169.458 23.5408H169.457ZM197.61 2.00777C197.61 1.51777 197.732 1.10477 197.977 0.76777C198.223 0.42977 198.644 0.26177 199.241 0.26177H204.871C205.025 0.26177 205.186 0.30377 205.354 0.38777C205.531 0.478357 205.69 0.599182 205.825 0.74477C205.971 0.89777 206.093 1.08177 206.193 1.29577C206.293 1.51077 206.343 1.74777 206.343 2.00777V36.3418C206.343 36.9238 206.178 37.3638 205.848 37.6628C205.519 37.9618 205.094 38.1108 204.573 38.1108H199.241C198.644 38.1108 198.223 37.9608 197.977 37.6628C197.732 37.3638 197.61 36.9228 197.61 36.3418V2.00777ZM236.31 34.6178C234.978 35.8487 233.437 36.833 231.76 37.5248C230.062 38.2246 228.242 38.5801 226.405 38.5708C224.305 38.5708 222.322 38.1878 220.453 37.4208C218.626 36.6825 216.957 35.6025 215.535 34.2388C214.118 32.8725 212.979 31.2454 212.18 29.4468C211.352 27.6088 210.939 25.6098 210.939 23.4488C210.939 22.1008 211.103 20.7948 211.433 19.5308C211.752 18.294 212.223 17.1016 212.835 15.9808C213.44 14.8776 214.181 13.8546 215.041 12.9358C215.898 12.0154 216.876 11.2152 217.948 10.5568C219.038 9.88992 220.213 9.37199 221.441 9.01677C222.733 8.64431 224.071 8.45876 225.416 8.46577C226.688 8.46577 227.921 8.63477 229.116 8.97177C230.311 9.30877 231.434 9.78377 232.483 10.3958C233.533 11.0088 234.493 11.7448 235.367 12.6028C236.229 13.4465 236.985 14.3917 237.619 15.4178C238.247 16.4364 238.738 17.5335 239.079 18.6808C239.423 19.8378 239.596 21.0288 239.596 22.2538C239.596 23.0508 239.584 23.7018 239.561 24.2078C239.538 24.7128 239.419 25.1158 239.205 25.4138C238.99 25.7138 238.635 25.9198 238.136 26.0338C237.638 26.1498 236.906 26.2068 235.942 26.2068H219.396C219.549 27.1868 219.859 28.0068 220.326 28.6668C220.759 29.2915 221.309 29.8258 221.946 30.2398C222.559 30.6308 223.21 30.9098 223.9 31.0798C224.539 31.2415 225.194 31.3261 225.853 31.3318C226.405 31.3318 226.971 31.2738 227.553 31.1598C228.127 31.0472 228.691 30.8935 229.243 30.6998C229.759 30.5205 230.258 30.2973 230.736 30.0328C231.188 29.7808 231.552 29.5158 231.828 29.2408C232.073 29.0408 232.284 28.8918 232.46 28.7918C232.636 28.6918 232.824 28.6428 233.023 28.6428C233.223 28.6428 233.425 28.7128 233.633 28.8498C233.885 29.0259 234.119 29.2258 234.333 29.4468L236.769 32.2048C236.937 32.4048 237.045 32.5848 237.091 32.7448C237.137 32.9058 237.16 33.0708 237.16 33.2388C237.16 33.5458 237.075 33.8098 236.907 34.0318C236.737 34.2551 236.536 34.4525 236.309 34.6178H236.31ZM225.256 15.4748C224.658 15.4748 224.08 15.5938 223.521 15.8308C222.954 16.073 222.423 16.3942 221.946 16.7848C221.456 17.1828 221.016 17.6348 220.625 18.1408C220.252 18.6178 219.932 19.1342 219.671 19.6808H231.414C231.106 19.1046 230.757 18.5515 230.369 18.0258C230 17.527 229.568 17.0788 229.082 16.6928C228.585 16.3022 228.026 15.9992 227.427 15.7968C226.807 15.5818 226.083 15.4748 225.256 15.4748Z" fill="white"/>
</svg>
